<svg xmlns="http://www.w3.org/2000/svg" xmlns:xlink="http://www.w3.org/1999/xlink" preserveAspectRatio="xMidYMid" width="408.5" height="72" viewBox="0 0 408.5 72">
  <defs>
    <style>
      .cls-1 {
        fill: #597a96;
        fill-rule: evenodd;
      }
    </style>
  </defs>
  <path d="M403.312,8.504 C402.712,9.304 402.112,9.604 401.112,9.004 C400.812,8.804 394.111,4.304 386.411,4.304 C374.110,4.304 369.510,11.904 369.510,17.605 C369.510,26.105 376.010,29.805 386.111,33.105 C399.812,37.806 408.512,42.606 408.512,54.207 C408.512,64.207 398.211,72.008 386.711,72.008 C374.810,72.008 366.810,65.007 365.509,63.807 C364.909,63.307 364.409,62.807 365.209,61.707 L366.109,60.507 C366.810,59.707 367.510,59.407 368.310,60.107 C369.310,61.007 376.710,67.808 386.811,67.808 C395.911,67.808 403.612,61.707 403.612,54.407 C403.612,45.506 396.311,41.506 384.211,37.406 C372.610,33.306 364.909,29.205 364.909,17.705 C364.909,10.204 370.910,0.003 386.511,0.003 C396.411,0.003 403.712,5.104 403.712,5.104 C404.112,5.404 404.812,6.104 404.112,7.204 C403.812,7.604 403.512,8.104 403.312,8.504 ZM332.511,72.008 C323.710,72.008 318.910,66.608 317.210,64.507 C316.810,63.907 316.810,63.307 317.310,62.807 L318.610,61.607 C319.110,61.107 319.610,60.907 320.310,61.607 C322.510,63.807 326.010,67.808 332.611,67.808 C341.111,67.808 347.212,61.907 347.212,50.007 L347.212,2.304 C347.212,1.504 347.812,1.004 348.612,1.004 L350.612,1.004 C351.312,1.004 351.912,1.604 351.912,2.304 L351.912,49.907 C351.912,63.907 344.411,72.008 332.511,72.008 ZM316.413,15.704 L302.112,15.704 L302.112,69.108 C302.112,70.108 301.212,71.008 300.212,71.008 L288.212,71.008 C287.212,71.008 286.312,70.108 286.312,69.108 L286.312,15.704 L272.011,15.704 C270.911,15.704 270.111,14.804 270.111,13.804 L270.111,2.904 C270.111,1.904 270.911,1.004 272.011,1.004 L316.413,1.004 C317.513,1.004 318.313,1.904 318.313,2.904 L318.313,13.804 C318.313,14.804 317.513,15.704 316.413,15.704 ZM232.613,72.008 C216.912,72.008 204.212,59.407 204.212,44.206 L204.212,2.904 C204.212,1.904 205.112,1.004 206.112,1.004 L218.412,1.004 C219.513,1.004 220.313,1.904 220.313,2.904 L220.313,43.406 C220.313,50.407 225.513,56.007 232.613,56.007 C239.814,56.007 245.114,50.407 245.114,43.406 L245.114,2.904 C245.114,1.904 245.914,1.004 247.014,1.004 L259.315,1.004 C260.315,1.004 261.215,1.904 261.215,2.904 L261.215,44.206 C261.215,59.407 248.414,72.008 232.613,72.008 ZM157.115,72.008 C137.114,72.008 121.213,56.107 121.213,36.106 C121.213,16.104 137.114,0.003 157.115,0.003 C177.116,0.003 193.117,16.104 193.117,36.106 C193.117,56.107 177.116,72.008 157.115,72.008 ZM157.115,16.004 C146.214,16.004 137.214,25.105 137.214,36.106 C137.214,47.006 146.214,56.007 157.115,56.007 C168.116,56.007 177.116,47.006 177.116,36.106 C177.116,25.105 168.116,16.004 157.115,16.004 ZM106.816,20.205 C106.116,20.905 105.016,20.905 104.316,20.205 C100.616,16.905 95.715,15.104 90.815,15.104 C79.514,15.104 71.214,24.505 71.214,35.706 C71.214,46.806 79.614,56.007 90.915,56.007 C95.615,56.007 100.716,54.307 104.316,51.207 C105.016,50.607 106.316,50.607 106.916,51.307 L114.717,59.607 C115.417,60.307 115.317,61.607 114.617,62.307 C107.816,68.908 99.216,72.008 90.315,72.008 C70.314,72.008 54.213,56.107 54.213,36.106 C54.213,16.104 70.314,0.003 90.315,0.003 C100.316,0.003 107.716,3.104 114.517,9.304 C115.417,10.104 115.417,11.304 114.617,12.104 L106.816,20.205 ZM47.117,51.307 C47.117,61.607 38.216,72.008 23.515,72.008 C10.515,72.008 3.314,66.608 1.014,64.307 C0.014,63.307 -0.286,62.907 0.514,61.507 L5.214,53.207 C6.014,51.907 7.915,52.107 8.615,52.607 C9.015,52.807 16.215,58.107 22.815,58.107 C26.816,58.107 29.716,55.607 29.716,52.107 C29.716,47.906 26.216,44.706 19.415,42.006 C10.815,38.606 0.014,31.905 0.014,19.905 C0.014,10.004 7.715,0.003 23.115,0.003 C33.516,0.003 41.517,5.304 44.517,7.504 C45.717,8.204 45.517,10.004 45.117,10.704 L40.017,18.405 C39.316,19.505 37.516,20.405 36.616,19.705 C35.716,19.205 28.416,13.704 22.315,13.704 C18.715,13.704 16.015,16.104 16.015,18.805 C16.015,22.505 19.015,25.305 26.916,28.505 C34.716,31.605 47.117,37.706 47.117,51.307 Z" class="cls-1"/>
</svg>
